<?xml version='1.0' encoding='UTF-8' standalone='no'?>
<!-- Created with Fritzing (http://www.fritzing.org/) -->
<svg xmlns="http://www.w3.org/2000/svg"  version="1.2" height="0.4in" x="0in" viewBox="0 0 800 600" y="0in" baseProfile="tiny" width="0.8in">
    <desc>
        <referenceFile>sparkfun-connectors_micro-b-ra-th_breadboard.svg</referenceFile>
    </desc>
    <desc >Fritzing breadboard generated by brd2svg</desc>
    <g  id="breadboard" gorn="0.1">
      <g  id="icon" gorn="0.1.0">
		    	<!--
            <path stroke-width="0" stroke="none" fill="#1F7A34"
	    d="M0,0L0,600L700,600L700,0L0,0z"/>
	    	    	-->
			<rect x="0" y="0" width="800" height="600" fill="#1F7A34" />

            <g transform="translate(800,160)">
                <g transform="rotate(90)">
                    <g >
                        <rect  fill="#4D4D4D" height="26.5833" y="219.722" width="300"/>
                        <path  fill="#808080" d="M300,277.097c0,5.5,-4.48611,10,-10,10L10,287.097c-5.5,0,-10,-4.48611,-10,-10l0,-71.5833c0,-5.5,4.48611,-10,10,-10l280,0c5.5,0,10,4.5,10,10L300,277.097z"/>
                        <rect  fill="#B3B3B3" height="347.472" x="22.3333" y="44.6806" width="255.347"/>
                        <g >
                            <path  fill="#999999" d="M22.3333,28.9444c0,-1.09722,0.652778,-2.61111,1.44444,-3.40278l24.6528,-24.0694c0.791667,-0.791667,2.33333,-1.43056,3.41667,-1.43056L250.875,0c1.08333,0,2.61111,0.652778,3.33333,1.45833l22.0833,23.75c0.763889,0.805556,1.36111,2.36111,1.36111,3.47222l0,16.6111c0,1.08333,-0.875,2.01389,-2,2.01389L24.3472,47.3056c-1.09722,0,-2.01389,-0.902778,-2.01389,-2.01389L22.3333,28.9444z"/>
                        </g>
                        <g >
                            <path  fill="#333333" d="M31.125,28.7222c0,-1.09722,0.625,-2.625,1.43056,-3.40278l18.5833,-18.1806C51.9306,6.375,53.4722,5.73611,54.5694,5.73611l193.028,0c1.11111,0,2.61111,0.652778,3.36111,1.45833l16.5139,17.7639c0.763889,0.833333,1.38889,2.36111,1.38889,3.47222l0,10.9722c0,1.09722,-0.888889,2.02778,-2.02778,2.02778L33.125,41.4306c-1.09722,0,-2,-0.902778,-2,-2.02778L31.125,28.7222z"/>
                        </g>
                        <g >
                            <path  fill="#4D4D4D" d="M31.125,28.7222c0,-1.09722,0.625,-2.625,1.43056,-3.40278l18.5833,-18.1806C51.9306,6.375,53.4722,5.73611,54.5694,5.73611l193.028,0c1.11111,0,1.11111,0.0555556,0,0.125c0,0,-123.778,7.625,-166.472,10.9583C38.4306,20.1667,31.875,36.7639,31.875,36.7639C31.4722,37.7778,31.125,37.7083,31.125,36.6111L31.125,28.7222L31.125,28.7222z"/>
                        </g>
                        <rect  height="14.75" x="72.3056" y="26.7083" width="155.403"/>
                        <g >
                            <g >
                                <rect  height="6.66667" x="210.972" y="20.0417" width="3.76389"/>
                            </g>
                            <g >
                                <rect  height="6.66667" x="179.556" y="20.0417" width="3.76389"/>
                            </g>
                            <g >
                                <rect  height="6.66667" x="148.125" y="20.0417" width="3.76389"/>
                            </g>
                            <g >
                                <rect  height="6.66667" x="116.681" y="20.0417" width="3.76389"/>
                            </g>
                            <g >
                                <rect  height="6.66667" x="85.2639" y="20.0417" width="3.76389"/>
                            </g>
                        </g>
                        <g >
                            <g >
                                <rect  fill="#FCEE21" height="18.0833" x="211.875" y="23.3611" width="2.01389"/>
                            </g>
                            <g >
                                <rect  fill="#FCEE21" height="18.0833" x="180.431" y="23.3611" width="2.01389"/>
                            </g>
                            <g >
                                <rect  fill="#FCEE21" height="18.0833" x="149.014" y="23.3611" width="1.98611"/>
                            </g>
                            <g >
                                <rect  fill="#FCEE21" height="18.0833" x="117.569" y="23.3611" width="2"/>
                            </g>
                            <g >
                                <rect  fill="#FCEE21" height="18.0833" x="86.1389" y="23.3611" width="2.01389"/>
                            </g>
                        </g>
                        <g >
                            <g >
                                <g >
                                    <g >
                                        <path  fill="#E6E6E6" d="M76.7222,139.306c0,2.75,-1.31944,4.98611,-2.90278,4.98611c-1.56944,0,-2.875,-2.23611,-2.875,-4.98611L70.9444,69.875c0,-2.75,1.30556,-5,2.875,-5c1.58333,0,2.90278,2.25,2.90278,5L76.7222,139.306z"/>
                                    </g>
                                    <g >
                                        <path  fill="#CCCCCC" d="M76.7222,139.306c0,2.75,-1.08333,4.98611,-2.40278,4.98611S71.9444,142.056,71.9444,139.306L71.9444,69.875c0,-2.75,1.06944,-5,2.38889,-5s2.40278,2.25,2.40278,5L76.7361,139.306z"/>
                                    </g>
                                </g>
                                <g >
                                    <g >
                                        <path  fill="#E6E6E6" d="M152.889,139.306c0,2.75,-1.31944,4.98611,-2.88889,4.98611c-1.58333,0,-2.88889,-2.23611,-2.88889,-4.98611L147.111,69.875c0,-2.75,1.30556,-5,2.88889,-5c1.56944,0,2.88889,2.25,2.88889,5L152.889,139.306z"/>
                                    </g>
                                    <g >
                                        <path  fill="#CCCCCC" d="M152.889,139.306c0,2.75,-1.06944,4.98611,-2.38889,4.98611s-2.40278,-2.23611,-2.40278,-4.98611L148.097,69.875c0,-2.75,1.08333,-5,2.40278,-5s2.38889,2.25,2.38889,5L152.889,139.306z"/>
                                    </g>
                                </g>
                                <g >
                                    <g >
                                        <path  fill="#E6E6E6" d="M229.069,139.306c0,2.75,-1.30556,4.98611,-2.90278,4.98611c-1.56944,0,-2.875,-2.23611,-2.875,-4.98611L223.292,69.875c0,-2.75,1.30556,-5,2.875,-5c1.59722,0,2.90278,2.25,2.90278,5L229.069,139.306z"/>
                                    </g>
                                    <g >
                                        <path  fill="#CCCCCC" d="M229.069,139.306c0,2.75,-1.06944,4.98611,-2.38889,4.98611c-1.34722,0,-2.38889,-2.23611,-2.38889,-4.98611L224.292,69.875c0,-2.75,1.04167,-5,2.38889,-5c1.31944,0,2.38889,2.25,2.38889,5L229.069,139.306z"/>
                                    </g>
                                </g>
                            </g>
                        </g>
                        <g >
                            <path  fill="#E6E6E6" d="M214.292,194.875c0,2.02778,-2.25,3.69444,-4.98611,3.69444L90.6944,198.569c-2.73611,0,-4.98611,-1.65278,-4.98611,-3.69444s2.25,-3.70833,4.98611,-3.70833l118.597,0C212.042,191.167,214.292,192.833,214.292,194.875z"/>
                        </g>
                        <path  fill="#999999" d="M277.653,195.514l12.3611,0c5.5,0,10,4.5,10,10c0,0,-7.29167,-1.13889,-22.3194,-1.75l0,-8.25L277.653,195.514z"/>
                        <g >
                            <path  fill="#CCCCCC" d="M214.292,195.514c0,1.66667,-2.25,3.04167,-4.98611,3.04167L90.6944,198.556c-2.73611,0,-4.98611,-1.375,-4.98611,-3.04167s2.25,-3.04167,4.98611,-3.04167l118.597,0C212.042,192.486,214.292,193.847,214.292,195.514z"/>
                        </g>
                        <g >
                            <rect  fill="#333333" height="125.417" y="276.236" width="300"/>
                        </g>
                        <rect  fill="#333333" height="83.3333" x="277.653" y="203.764" width="11.25"/>
                        <path  fill="#808080" d="M0,265.403l0,11.7083c0,5.5,4.48611,10,10,10L11.1111,287.111l0,-21.7083L0,265.403z"/>
                        <path  fill="#808080" d="M288.889,265.403l0,21.7083l1.11111,0c5.5,0,10,-4.48611,10,-10l0,-11.7083L288.889,265.403z"/>
                        <polygon  points="249.389,265.403,249.389,276.236,238.972,276.236,238.972,265.403,61.0278,265.403,61.0278,276.236,50.6111,276.236,50.6111,265.403,22.3333,265.403,22.3333,287.097,277.653,287.097,277.653,265.403" fill="#808080"/>
                        <rect  fill="#B3B3B3" height="142.653" x="279.306" y="254.181" width="7.90278"/>
                        <rect  fill="#CCCCCC" height="7.86111" x="277.653" y="246.306" width="9.55556"/>
                        <rect  fill="#E6E6E6" height="27.4028" x="279.306" y="369.458" width="7.90278"/>
                        <polygon  points="288.889,355.958,288.889,396.861,277.681,396.861,277.681,355.958,274.125,355.958,274.125,401.667,300.306,401.667,300.306,355.958" fill="#4D4D4D"/>
                        <polygon  points="22.0556,355.958,22.0556,396.861,10.8333,396.861,10.8333,355.958,0,355.958,0,401.667,26.1667,401.667,26.1667,355.958" fill="#4D4D4D"/>
                        <path  fill="#999999" d="M22.3333,218.042C8.375,234.681,0,278.014,0,277.097l0,-71.5833c0,-5.5,4.48611,-10,10,-10l12.3472,0"/>
                        <rect  fill="#333333" height="83.3333" x="11.1111" y="203.764" width="11.2361"/>
                        <rect  fill="#B3B3B3" height="142.653" x="12.4861" y="254.181" width="7.90278"/>
                        <rect  fill="#CCCCCC" height="7.86111" x="12.4861" y="246.306" width="9.84722"/>
                        <rect  fill="#E6E6E6" height="27.4028" x="12.4861" y="369.458" width="7.90278"/>
                        <rect  fill="#4D4D4D" height="114.569" x="22.3333" y="287.097" width="255.319"/>
                        <polygon  points="22.3611,265.403,71.9583,287.444,134.806,401.667,300,401.667,300,257.806,277.653,243.042,277.653,265.403" enable-background="new    " opacity="0.11"/>
                    </g>
                </g>
            </g>
          </g>
	  <!-- top -->
          <g  transform="translate(34.035,34.05)">
            <g >
              <rect  fill="#8D8C8C" height="31.9" x="0" y="0" width="31.93" id="connector4pin" gorn="0.1.3.0.0"/>
              <rect  fill="#8C8663" height="16.4152" x="7.79153" y="7.73544" width="16.4442"/>
              <polygon  points="0,31.9,7.79153,24.1368,7.79153,6.97162,0,0" fill="#B8AF82"/>
              <polygon  points="24.2079,7.76321,7.90264,7.76321,0,0,31.93,0" fill="#80795B"/>
              <polygon  points="24.2079,24.1368,24.2079,7.76321,31.93,0,31.93,31.9" fill="#5E5B43"/>
              <polygon  points="0,31.9,7.87486,24.1368,24.2079,24.1368,31.93,31.9" fill="#9A916C"/>
            </g>
          </g>
          <g  transform="translate(134.035,34.05)">
            <g >
              <rect  fill="#8D8C8C" height="31.9" x="0" y="0" width="31.93" id="connector3pin" gorn="0.1.3.0.0"/>
              <rect  fill="#8C8663" height="16.4152" x="7.79153" y="7.73544" width="16.4442"/>
              <polygon  points="0,31.9,7.79153,24.1368,7.79153,6.97162,0,0" fill="#B8AF82"/>
              <polygon  points="24.2079,7.76321,7.90264,7.76321,0,0,31.93,0" fill="#80795B"/>
              <polygon  points="24.2079,24.1368,24.2079,7.76321,31.93,0,31.93,31.9" fill="#5E5B43"/>
              <polygon  points="0,31.9,7.87486,24.1368,24.2079,24.1368,31.93,31.9" fill="#9A916C"/>
            </g>
          </g>
  
          <g  transform="translate(234.035,34.05)">
            <g >
              <rect  fill="#8D8C8C" height="31.9" x="0" y="0" width="31.93" id="connector2pin" gorn="0.1.3.0.0"/>
              <rect  fill="#8C8663" height="16.4152" x="7.79153" y="7.73544" width="16.4442"/>
              <polygon  points="0,31.9,7.79153,24.1368,7.79153,6.97162,0,0" fill="#B8AF82"/>
              <polygon  points="24.2079,7.76321,7.90264,7.76321,0,0,31.93,0" fill="#80795B"/>
              <polygon  points="24.2079,24.1368,24.2079,7.76321,31.93,0,31.93,31.9" fill="#5E5B43"/>
              <polygon  points="0,31.9,7.87486,24.1368,24.2079,24.1368,31.93,31.9" fill="#9A916C"/>
            </g>
          </g>
          <g  transform="translate(334.035,34.05)">
            <g >
              <rect  fill="#8D8C8C" height="31.9" x="0" y="0" width="31.93" id="connector1pin" gorn="0.1.5.0.0"/>
              <rect  fill="#8C8663" height="16.4152" x="7.79153" y="7.73544" width="16.4442"/>
                <polygon  points="0,31.9,7.79153,24.1368,7.79153,6.97162,0,0" fill="#B8AF82"/>
                <polygon  points="24.2079,7.76321,7.90264,7.76321,0,0,31.93,0" fill="#80795B"/>
                <polygon  points="24.2079,24.1368,24.2079,7.76321,31.93,0,31.93,31.9" fill="#5E5B43"/>
                <polygon  points="0,31.9,7.87486,24.1368,24.2079,24.1368,31.93,31.9" fill="#9A916C"/>
            </g>
          </g>

	  <!--under -->
          <g  transform="translate(34.035,534.05)">
            <g >
              <rect  fill="#8D8C8C" height="31.9" x="0" y="0" width="31.93" id="connector5pin" gorn="0.1.1.0.0"/>
              <rect  fill="#8C8663" height="16.4152" x="7.79153" y="7.73544" width="16.4442"/>
                <polygon  points="0,31.9,7.79153,24.1368,7.79153,6.97162,0,0" fill="#B8AF82"/>
                <polygon  points="24.2079,7.76321,7.90264,7.76321,0,0,31.93,0" fill="#80795B"/>
                <polygon  points="24.2079,24.1368,24.2079,7.76321,31.93,0,31.93,31.9" fill="#5E5B43"/>
                <polygon  points="0,31.9,7.87486,24.1368,24.2079,24.1368,31.93,31.9" fill="#9A916C"/>
            </g>
          </g>
          <g  transform="translate(134.035,534.05)">
            <g >
              <rect  fill="#8D8C8C" height="31.9" x="0" y="0" width="31.93" id="connector6pin" gorn="0.1.1.0.0"/>
              <rect  fill="#8C8663" height="16.4152" x="7.79153" y="7.73544" width="16.4442"/>
                <polygon  points="0,31.9,7.79153,24.1368,7.79153,6.97162,0,0" fill="#B8AF82"/>
                <polygon  points="24.2079,7.76321,7.90264,7.76321,0,0,31.93,0" fill="#80795B"/>
                <polygon  points="24.2079,24.1368,24.2079,7.76321,31.93,0,31.93,31.9" fill="#5E5B43"/>
                <polygon  points="0,31.9,7.87486,24.1368,24.2079,24.1368,31.93,31.9" fill="#9A916C"/>
            </g>
          </g>
          <g  transform="translate(234.035,534.05)">
            <g >
              <rect  fill="#8D8C8C" height="31.9" x="0" y="0" width="31.93" id="connector7pin" gorn="0.1.2.0.0"/>
              <rect  fill="#8C8663" height="16.4152" x="7.79153" y="7.73544" width="16.4442"/>
              <polygon  points="0,31.9,7.79153,24.1368,7.79153,6.97162,0,0" fill="#B8AF82"/>
              <polygon  points="24.2079,7.76321,7.90264,7.76321,0,0,31.93,0" fill="#80795B"/>
              <polygon  points="24.2079,24.1368,24.2079,7.76321,31.93,0,31.93,31.9" fill="#5E5B43"/>
                <polygon  points="0,31.9,7.87486,24.1368,24.2079,24.1368,31.93,31.9" fill="#9A916C"/>
            </g>
          </g>
          <g  transform="translate(334.035,534.05)">
            <g >
              <rect  fill="#8D8C8C" height="31.9" x="0" y="0" width="31.93" id="connector8pin" gorn="0.1.4.0.0"/>
              <rect  fill="#8C8663" height="16.4152" x="7.79153" y="7.73544" width="16.4442"/>
              <polygon  points="0,31.9,7.79153,24.1368,7.79153,6.97162,0,0" fill="#B8AF82"/>
              <polygon  points="24.2079,7.76321,7.90264,7.76321,0,0,31.93,0" fill="#80795B"/>
              <polygon  points="24.2079,24.1368,24.2079,7.76321,31.93,0,31.93,31.9" fill="#5E5B43"/>
                <polygon  points="0,31.9,7.87486,24.1368,24.2079,24.1368,31.93,31.9" fill="#9A916C"/>
            </g>
          </g>
    </g>
</svg>
