<?xml version='1.0' encoding='UTF-8' standalone='no'?>
<svg xmlns="http://www.w3.org/2000/svg" gorn="0" height="0.33in"  viewBox="0 0 140.0 33.0" docname="LPC1114.svg" xml:space="preserve" id="svg2" xmlns:xml="http://www.w3.org/XML/1998/namespace" width="1.4in" version="1.2">
    <desc>
        <referenceFile>LPC1114_breadboard.svg</referenceFile>
    </desc>
    <metadata  id="metadata3782">
        <rdf:RDF xmlns:rdf="http://www.w3.org/1999/02/22-rdf-syntax-ns#">
            <cc:Work rdf:about="" xmlns:cc="http://creativecommons.org/ns#" xmlns:rdf="http://www.w3.org/1999/02/22-rdf-syntax-ns#">
                <dc:format xmlns:dc="http://purl.org/dc/elements/1.1/">image/svg+xml</dc:format>
                <dc:type xmlns:dc="http://purl.org/dc/elements/1.1/" rdf:resource="http://purl.org/dc/dcmitype/StillImage" xmlns:rdf="http://www.w3.org/1999/02/22-rdf-syntax-ns#"/>
                <dc:title xmlns:dc="http://purl.org/dc/elements/1.1/"/>
            </cc:Work>
        </rdf:RDF>
    </metadata>
    <defs  id="defs3780"/>
    <g gorn="0.2"  id="breadboard">
        <rect gorn="0.2.0" height="27.0" x="0"  y="3" fill="#303030" id="middle" width="140.0"/>
        <rect gorn="0.2.1" height="2.46" x="0"  y="3.0" fill="#3D3D3D" id="top" width="140.0"/>
        <rect gorn="0.2.2" height="2.46" x="0"  y="27.54" fill="#000000" id="bottom" width="140.0"/>
        <polygon gorn="0.2.3"  fill="#141414" id="right" points="140.0,3 139.25,5.46 139.25,27.54 140.0,30.0"/>
        <polygon gorn="0.2.4"  fill="#1F1F1F" id="left" points="0,3 0.75,5.46 0.75,27.54 0,30.0"/>
        <polygon gorn="0.2.5"  fill="#1C1C1C" id="left-upper-rect" points="5,11.5 0.75,11.46 0.56,13.58 0.56,16.5 5,16.5"/>
        <polygon gorn="0.2.6"  fill="#383838" id="left-lower-rect" points="0.75,21.55 5,21.55 5,16.5 0.56,16.5 0.56,19.42"/>
        <path d="M0.56,13.58v5.83c1.47-0.17,2.62-1.4,2.62-2.92C3.18,14.97,2.04,13.75,0.56,13.58z" gorn="0.2.7"  fill="#262626" id="slot"/>
        <path d="M0.75,5.46V11.45c2.38,0.45,4.19,2.53,4.19,5.04c0,2.51-1.8,4.6-4.19,5.05V21.55h5.0V5.46H0.75z" gorn="0.2.8"  fill="#303030" id="cover"/>
        <circle gorn="0.2.9"  fill="#212121" id="circle3663" cx="6.5" r="2.06" cy="23.47"/>
        <g gorn="0.2.10"  font-family="OCRA" font-size="8" fill="#e6e6e6" id="label" style="text-anchor:start;text-align:start;writing-mode:lr;line-height:125%" text-anchor="start" stroke="none">
            <text x="6.5"  y="16.5">LPC1114</text>
        </g>
        <rect gorn="0.2.11" height="4.34" x="3.5"  y="28.66" fill="#8C8C8C" id="connector0pin" width="3"/>
        <rect gorn="0.2.12" height="3" x="3.5"  y="30.0" fill="#8C8C8C" id="connector0terminal" width="3"/>
        <polygon gorn="0.2.13"  fill="#8C8C8C" id="polygon3668" points="3.5,28.66 3.5,30.66 6.5,30.66 8.5,29.74 8.5,28.66  "/>
        <rect gorn="0.2.14" height="4.34" x="3.5"  fill="#8C8C8C" id="connector27pin" width="3"/>
        <rect gorn="0.2.15" height="3" x="3.5"  fill="#8C8C8C" id="connector27terminal" width="3"/>
        <polygon gorn="0.2.16"  fill="#8C8C8C" id="polygon3672" points="8.5,4.34 8.5,3.26 6.5,2.34 3.5,2.34 3.5,4.34"/>
        <rect gorn="0.2.17" height="4.34" x="133.5"  y="28.66" fill="#8C8C8C" id="connector13pin" width="3"/>
        <rect gorn="0.2.18" height="3" x="133.5"  y="30.0" fill="#8C8C8C" id="connector13terminal" width="3"/>
        <polygon gorn="0.2.19"  fill="#8C8C8C" id="polygon3676" points="131.5,28.66 131.5,29.74 133.5,30.66 136.5,30.66 136.5,28.66"/>
        <rect gorn="0.2.20" height="4.34" x="133.5"  y="0" fill="#8C8C8C" id="connector14pin" width="3"/>
        <rect gorn="0.2.21" height="3" x="133.5"  y="0" fill="#8C8C8C" id="connector14terminal" width="3"/>
        <polygon gorn="0.2.22"  fill="#8C8C8C" id="polygon3680" points="136.5,4.34 136.5,2.34 133.5,2.34 131.5,3.26 131.5,4.34  "/>
        <rect gorn="0.2.23" height="4.34" x="13.5"  y="28.66" fill="#8C8C8C" id="connector1pin" width="3"/>
        <rect gorn="0.2.24" height="3" x="13.5"  y="30.0" fill="#8C8C8C" id="connector1terminal" width="3"/>
        <polygon gorn="0.2.25"  fill="#8C8C8C" id="polygon3684" points="11.5,28.66 11.5,29.74 13.5,30.66 16.5,30.66 18.5,29.74 18.5,28.66"/>
        <rect gorn="0.2.26" height="4.34" x="13.5"  y="0" fill="#8C8C8C" id="connector26pin" width="3"/>
        <rect gorn="0.2.27" height="3" x="13.5"  fill="#8C8C8C" id="connector26terminal" width="3"/>
        <polygon gorn="0.2.28"  fill="#8C8C8C" id="polygon3688" points="18.5,4.34 18.5,3.26 16.5,2.34 13.5,2.34 11.5,3.26 11.5,4.34"/>
        <rect gorn="0.2.29" height="4.34" x="23.5"  y="28.66" fill="#8C8C8C" id="connector2pin" width="3"/>
        <rect gorn="0.2.30" height="3" x="23.5"  y="30.0" fill="#8C8C8C" id="connector2terminal" width="3"/>
        <polygon gorn="0.2.31"  fill="#8C8C8C" id="polygon3692" points="21.5,28.66 21.5,29.74 23.5,30.66 26.5,30.66 28.5,29.74 28.5,28.66"/>
        <rect gorn="0.2.32" height="4.34" x="23.5"  y="0" fill="#8C8C8C" id="connector25pin" width="3"/>
        <rect gorn="0.2.33" height="3" x="23.5"  fill="#8C8C8C" id="connector25terminal" width="3"/>
        <polygon gorn="0.2.34"  fill="#8C8C8C" id="polygon3696" points="28.5,4.34 28.5,3.26 26.5,2.34 23.5,2.34 21.5,3.26 21.5,4.34"/>
        <rect gorn="0.2.35" height="4.34" x="33.5"  y="28.66" fill="#8C8C8C" id="connector3pin" width="3"/>
        <rect gorn="0.2.36" height="3" x="33.5"  y="30.0" fill="#8C8C8C" id="connector3terminal" width="3"/>
        <polygon gorn="0.2.37"  fill="#8C8C8C" id="polygon3700" points="31.5,28.66 31.5,29.74 33.5,30.66 36.5,30.66 38.5,29.74 38.5,28.66"/>
        <rect gorn="0.2.38" height="4.34" x="33.5"  y="0" fill="#8C8C8C" id="connector24pin" width="3"/>
        <rect gorn="0.2.39" height="3" x="33.5"  fill="#8C8C8C" id="connector24terminal" width="3"/>
        <polygon gorn="0.2.40"  fill="#8C8C8C" id="polygon3704" points="38.5,4.34 38.5,3.26 36.5,2.34 33.5,2.34 31.5,3.26 31.5,4.34"/>
        <rect gorn="0.2.41" height="4.34" x="43.5"  y="28.66" fill="#8C8C8C" id="connector4pin" width="3"/>
        <rect gorn="0.2.42" height="3" x="43.5"  y="30.0" fill="#8C8C8C" id="connector4terminal" width="3"/>
        <polygon gorn="0.2.43"  fill="#8C8C8C" id="polygon3708" points="41.5,28.66 41.5,29.74 43.5,30.66 46.5,30.66 48.5,29.74 48.5,28.66"/>
        <rect gorn="0.2.44" height="4.34" x="43.5"  y="0" fill="#8C8C8C" id="connector23pin" width="3"/>
        <rect gorn="0.2.45" height="3" x="43.5"  fill="#8C8C8C" id="connector23terminal" width="3"/>
        <polygon gorn="0.2.46"  fill="#8C8C8C" id="polygon3712" points="48.5,4.34 48.5,3.26 46.5,2.34 43.5,2.34 41.5,3.26 41.5,4.34"/>
        <rect gorn="0.2.47" height="4.34" x="53.5"  y="28.66" fill="#8C8C8C" id="connector5pin" width="3"/>
        <rect gorn="0.2.48" height="3" x="53.5"  y="30.0" fill="#8C8C8C" id="connector5terminal" width="3"/>
        <polygon gorn="0.2.49"  fill="#8C8C8C" id="polygon3716" points="51.5,28.66 51.5,29.74 53.5,30.66 56.5,30.66 58.5,29.74 58.5,28.66"/>
        <rect gorn="0.2.50" height="4.34" x="53.5"  y="0" fill="#8C8C8C" id="connector22pin" width="3"/>
        <rect gorn="0.2.51" height="3" x="53.5"  fill="#8C8C8C" id="connector22terminal" width="3"/>
        <polygon gorn="0.2.52"  fill="#8C8C8C" id="polygon3720" points="58.5,4.34 58.5,3.26 56.5,2.34 53.5,2.34 51.5,3.26 51.5,4.34"/>
        <rect gorn="0.2.53" height="4.34" x="63.5"  y="28.66" fill="#8C8C8C" id="connector6pin" width="3"/>
        <rect gorn="0.2.54" height="3" x="63.5"  y="30.0" fill="#8C8C8C" id="connector6terminal" width="3"/>
        <polygon gorn="0.2.55"  fill="#8C8C8C" id="polygon3724" points="61.5,28.66 61.5,29.74 63.5,30.66 66.5,30.66 68.5,29.74 68.5,28.66"/>
        <rect gorn="0.2.56" height="4.34" x="63.5"  y="0" fill="#8C8C8C" id="connector21pin" width="3"/>
        <rect gorn="0.2.57" height="3" x="63.5"  fill="#8C8C8C" id="connector21terminal" width="3"/>
        <polygon gorn="0.2.58"  fill="#8C8C8C" id="polygon3728" points="68.5,4.34 68.5,3.26 66.5,2.34 63.5,2.34 61.5,3.26 61.5,4.34"/>
        <rect gorn="0.2.59" height="4.34" x="73.5"  y="28.66" fill="#8C8C8C" id="connector7pin" width="3"/>
        <rect gorn="0.2.60" height="3" x="73.5"  y="30.0" fill="#8C8C8C" id="connector7terminal" width="3"/>
        <polygon gorn="0.2.61"  fill="#8C8C8C" id="polygon3732" points="71.5,28.66 71.5,29.74 73.5,30.66 76.5,30.66 78.5,29.74 78.5,28.66"/>
        <rect gorn="0.2.62" height="4.34" x="73.5"  y="0" fill="#8C8C8C" id="connector20pin" width="3"/>
        <rect gorn="0.2.63" height="3" x="73.5"  fill="#8C8C8C" id="connector20terminal" width="3"/>
        <polygon gorn="0.2.64"  fill="#8C8C8C" id="polygon3736" points="78.5,4.34 78.5,3.26 76.5,2.34 73.5,2.34 71.5,3.26 71.5,4.34"/>
        <rect gorn="0.2.65" height="4.34" x="83.5"  y="28.66" fill="#8C8C8C" id="connector8pin" width="3"/>
        <rect gorn="0.2.66" height="3" x="83.5"  y="30.0" fill="#8C8C8C" id="connector8terminal" width="3"/>
        <polygon gorn="0.2.67"  fill="#8C8C8C" id="polygon3740" points="81.5,28.66 81.5,29.74 83.5,30.66 86.5,30.66 88.5,29.74 88.5,28.66"/>
        <rect gorn="0.2.68" height="4.34" x="83.5"  y="0" fill="#8C8C8C" id="connector19pin" width="3"/>
        <rect gorn="0.2.69" height="3" x="83.5"  fill="#8C8C8C" id="connector19terminal" width="3"/>
        <polygon gorn="0.2.70"  fill="#8C8C8C" id="polygon3744" points="88.5,4.34 88.5,3.26 86.5,2.34 83.5,2.34 81.5,3.26 81.5,4.34"/>
        <rect gorn="0.2.71" height="4.34" x="93.5"  y="28.66" fill="#8C8C8C" id="connector9pin" width="3"/>
        <rect gorn="0.2.72" height="3" x="93.5"  y="30.0" fill="#8C8C8C" id="connector9terminal" width="3"/>
        <polygon gorn="0.2.73"  fill="#8C8C8C" id="polygon3748" points="91.5,28.66 91.5,29.74 93.5,30.66 96.5,30.66 98.5,29.74 98.5,28.66"/>
        <rect gorn="0.2.74" height="4.34" x="93.5"  y="0" fill="#8C8C8C" id="connector18pin" width="3"/>
        <rect gorn="0.2.75" height="3" x="93.5"  fill="#8C8C8C" id="connector18terminal" width="3"/>
        <polygon gorn="0.2.76"  fill="#8C8C8C" id="polygon3752" points="98.5,4.34 98.5,3.26 96.5,2.34 93.5,2.34 91.5,3.26 91.5,4.34"/>
        <rect gorn="0.2.77" height="4.34" x="103.5"  y="28.66" fill="#8C8C8C" id="connector10pin" width="3"/>
        <rect gorn="0.2.78" height="3" x="103.5"  y="30.0" fill="#8C8C8C" id="connector10terminal" width="3"/>
        <polygon gorn="0.2.79"  fill="#8C8C8C" id="polygon3756" points="101.5,28.66 101.5,29.74 103.5,30.66 106.5,30.66 108.5,29.74 108.5,28.66"/>
        <rect gorn="0.2.80" height="4.34" x="103.5"  y="0" fill="#8C8C8C" id="connector17pin" width="3"/>
        <rect gorn="0.2.81" height="3" x="103.5"  fill="#8C8C8C" id="connector17terminal" width="3"/>
        <polygon gorn="0.2.82"  fill="#8C8C8C" id="polygon3760" points="108.5,4.34 108.5,3.26 106.5,2.34 103.5,2.34 101.5,3.26 101.5,4.34"/>
        <rect gorn="0.2.83" height="4.34" x="113.5"  y="28.66" fill="#8C8C8C" id="connector11pin" width="3"/>
        <rect gorn="0.2.84" height="3" x="113.5"  y="30.0" fill="#8C8C8C" id="connector11terminal" width="3"/>
        <polygon gorn="0.2.85"  fill="#8C8C8C" id="polygon3764" points="111.5,28.66 111.5,29.74 113.5,30.66 116.5,30.66 118.5,29.74 118.5,28.66"/>
        <rect gorn="0.2.86" height="4.34" x="113.5"  y="0" fill="#8C8C8C" id="connector16pin" width="3"/>
        <rect gorn="0.2.87" height="3" x="113.5"  fill="#8C8C8C" id="connector16terminal" width="3"/>
        <polygon gorn="0.2.88"  fill="#8C8C8C" id="polygon3768" points="118.5,4.34 118.5,3.26 116.5,2.34 113.5,2.34 111.5,3.26 111.5,4.34"/>
        <rect gorn="0.2.89" height="4.34" x="123.5"  y="28.66" fill="#8C8C8C" id="connector12pin" width="3"/>
        <rect gorn="0.2.90" height="3" x="123.5"  y="30.0" fill="#8C8C8C" id="connector12terminal" width="3"/>
        <polygon gorn="0.2.91"  fill="#8C8C8C" id="polygon3772" points="121.5,28.66 121.5,29.74 123.5,30.66 126.5,30.66 128.5,29.74 128.5,28.66"/>
        <rect gorn="0.2.92" height="4.34" x="123.5"  y="0" fill="#8C8C8C" id="connector15pin" width="3"/>
        <rect gorn="0.2.93" height="3" x="123.5"  fill="#8C8C8C" id="connector15terminal" width="3"/>
        <polygon gorn="0.2.94"  fill="#8C8C8C" id="polygon3776" points="128.5,4.34 128.5,3.26 126.5,2.34 123.5,2.34 121.5,3.26 121.5,4.34"/>
    </g>
</svg>
