<?xml version='1.0' encoding='utf-8'?>
<!DOCTYPE svg>
<!-- Generator: Adobe Illustrator 16.0.0, SVG Export Plug-In . SVG Version: 6.00 Build 0)  -->
<svg xmlns="http://www.w3.org/2000/svg"  version="1.1" xmlns:xml="http://www.w3.org/XML/1998/namespace" height="0.620014in" viewBox="0 0 37.07 70" x="0px" y="0px" enable-background="new 0 0 37.07 60" width="0.514861in" id="Layer_1" xml:space="preserve" gorn="0">
    <desc >
        <referenceFile>usb_mpl2303_schematic.svg</referenceFile>
    </desc>
    <g  id="schematic" gorn="0.1">
      <rect fill="#FFFFFF" height="70" x="7.55" y="0.72" width="34.802"/>

        <g  transform="matrix(1 0 0 1 17.3762 15.052)">
          <g >
            <text font-size="3.25" font-family="'DroidSans'">Micro USB</text>
            </g>
        </g>
        <g  transform="matrix(1 0 0 1 18.6262 19.5872)">
          <g >
            <text  font-size="3.25" font-family="'DroidSans'">MPL2303SA</text>
          </g>
        </g>
	<rect stroke-width="0.9" x="7.55" y="0.72" width="32" height="68" stroke="#000000" fill="none" />
	<!--
        <line  stroke-width="0.9" y2="43.92" stroke="#000000" x1="7.55" x2="7.55" fill="none" stroke-linecap="round" y1="0.72"/>
        <line  stroke-width="0.9" y2="43.92" stroke="#000000" x1="7.55" x2="36.35" fill="none" stroke-linecap="round" y1="43.92"/>
        <line  stroke-width="0.9" y2="0.72" stroke="#000000" x1="36.35" x2="36.35" fill="none" stroke-linecap="round" y1="43.92"/>
        <line  stroke-width="0.9" y2="0.72" stroke="#000000" x1="36.35" x2="7.55" fill="none" stroke-linecap="round" y1="0.72"/>
	-->
	
        <line  stroke-width="0.75" y2="7.92" stroke="#787878" x1="0.35" x2="7.55" fill="none" stroke-linecap="round" id="connector1pin" gorn="0.1.7" y1="7.92"/>
        <rect  fill="none" height="0.001" x="0.35" y="7.92" width="0" id="connector0terminal" gorn="0.1.8"/>
        <g  transform="matrix(1 0 0 1 3.2615 6.8694)">
            <g >
                <text  fill="#8C8C8C" font-size="2.5" font-family="'DroidSans'">1</text>
            </g>
        </g>
        <g  transform="matrix(1 0 0 1 9.6497 8.6194)">
            <g >
                <text  fill="#787878" font-size="2.5" font-family="'DroidSans'">GND</text>
            </g>
        </g>

        <line  stroke-width="0.75" y2="15.12" stroke="#787878" x1="0.35" x2="7.55" fill="none" stroke-linecap="round" id="connector2pin" gorn="0.1.13" y1="15.12"/>
        <rect  fill="none" height="0.001" x="0.35" y="15.12" width="0" id="connector1terminal" gorn="0.1.14"/>
        <g  transform="matrix(1 0 0 1 3.2615 14.0706)">
            <g >
                <text  fill="#8C8C8C" font-size="2.5" font-family="'DroidSans'">2</text>
            </g>
        </g>
        <g  transform="matrix(1 0 0 1 9.6497 15.8206)">
            <g >
                <text  fill="#787878" font-size="2.5" font-family="'DroidSans'">TXD</text>
            </g>
        </g>
        <line  stroke-width="0.75" y2="22.32" stroke="#787878" x1="0.35" x2="7.55" fill="none" stroke-linecap="round" id="connector3pin" gorn="0.1.17" y1="22.32"/>
        <rect  fill="none" height="0.001" x="0.35" y="22.32" width="0" id="connector2terminal" gorn="0.1.18"/>
        <g  transform="matrix(1 0 0 1 3.2615 21.2698)">
            <g >
                <text  fill="#8C8C8C" font-size="2.5" font-family="'DroidSans'">3</text>
            </g>
        </g>
        <g  transform="matrix(1 0 0 1 9.6497 23.0198)">
            <g >
                <text  fill="#787878" font-size="2.5" font-family="'DroidSans'">VDD325</text>
            </g>
        </g>
        <line  stroke-width="0.75" y2="29.52" stroke="#787878" x1="0.35" x2="7.55" fill="none" stroke-linecap="round" id="connector4pin" gorn="0.1.21" y1="29.52"/>
        <rect  fill="none" height="0.001" x="0.35" y="29.52" width="0" id="connector3terminal" gorn="0.1.22"/>
        <g  transform="matrix(1 0 0 1 3.2615 28.469)">
            <g >
                <text  fill="#8C8C8C" font-size="2.5" font-family="'DroidSans'">4</text>
            </g>
        </g>
        <g  transform="matrix(1 0 0 1 9.6497 30.219)">
            <g >
                <text  fill="#787878" font-size="2.5" font-family="'DroidSans'">RXD</text>
            </g>
        </g>
        <line  stroke-width="0.75" y2="36.72" stroke="#787878" x1="0.35" x2="7.55" fill="none" stroke-linecap="round" id="connector5pin" gorn="0.1.25" y1="36.72"/>
        <rect  fill="none" height="0.001" x="0.35" y="36.72" width="0" id="connector4terminal" gorn="0.1.26"/>
        <g  transform="matrix(1 0 0 1 3.2615 35.6702)">
            <g >
                <text  fill="#8C8C8C" font-size="2.5" font-family="'DroidSans'">5</text>
            </g>
        </g>
        <g  transform="matrix(1 0 0 1 9.6497 37.4202)">
            <g >
                <text  fill="#787878" font-size="2.5" font-family="'DroidSans'">DP</text>
            </g>
        </g>

	<!-- -->
        <line  stroke-width="0.75" y2="43.92" stroke="#787878" x1="0.35" x2="7.55" fill="none" stroke-linecap="round" id="connector6pin" gorn="0.1.25" y1="43.92"/>
        <rect  fill="none" height="0.001" x="0.35" y="43.92" width="0" id="connector5terminal" gorn="0.1.26"/>
        <g  transform="matrix(1 0 0 1 3.2615 42.87)">
            <g >
                <text  fill="#8C8C8C" font-size="2.5" font-family="'DroidSans'">6</text>
            </g>
        </g>
        <g  transform="matrix(1 0 0 1 9.6497 44.62)">
            <g >
                <text  fill="#787878" font-size="2.5" font-family="'DroidSans'">DM</text>
            </g>
        </g>

	<!-- -->
        <line  stroke-width="0.75" y2="51.12" stroke="#787878" x1="0.35" x2="7.55" fill="none" stroke-linecap="round" id="connector7pin" gorn="0.1.25" y1="51.12"/>
        <rect  fill="none" height="0.001" x="0.35" y="43.92" width="0" id="connector7terminal" gorn="0.1.26"/>
        <g  transform="matrix(1 0 0 1 3.2615 50.07)">
            <g >
                <text  fill="#8C8C8C" font-size="2.5" font-family="'DroidSans'">7</text>
            </g>
        </g>
        <g  transform="matrix(1 0 0 1 9.6497 51.82)">
            <g >
                <text  fill="#787878" font-size="2.5" font-family="'DroidSans'">VDD_5</text>
            </g>
        </g>

	<!-- -->
        <line  stroke-width="0.75" y2="58.32" stroke="#787878" x1="0.35" x2="7.55" fill="none" stroke-linecap="round" id="connector8pin" gorn="0.1.25" y1="58.32"/>
        <rect  fill="none" height="0.001" x="0.35" y="43.92" width="0" id="connector8terminal" gorn="0.1.26"/>
        <g  transform="matrix(1 0 0 1 3.2615 57.27)">
            <g >
                <text  fill="#8C8C8C" font-size="2.5" font-family="'DroidSans'">8</text>
            </g>
        </g>
        <g  transform="matrix(1 0 0 1 9.6497 59.02)">
            <g >
                <text  fill="#787878" font-size="2.5" font-family="'DroidSans'">VO_33</text>
            </g>
        </g>
	
    </g>
</svg>
