<?xml version='1.0' encoding='UTF-8' standalone='no'?>
<svg xmlns="http://www.w3.org/2000/svg" baseProfile="tiny" height="0.33in" x="0in"  y="0in" viewBox="0 0 300 330" width="0.3in" version="1.2">
    <desc>
        <referenceFile>LPC1114_icon.svg</referenceFile>
    </desc>
    <g gorn="0.0"  id="icon">
        <rect gorn="0.0.0" height="270" x="0"  y="30" fill="#303030" id="middle" stroke-width="0" width="300"/>
        <rect gorn="0.0.1" height="24.6" x="0"  y="30" fill="#3D3D3D" id="top" stroke-width="0" width="300"/>
        <rect gorn="0.0.2" height="24.6" x="0"  y="275.4" fill="#000000" id="bottom" stroke-width="0" width="300"/>
        <polygon gorn="0.0.3"  fill="#141414" id="right" stroke-width="0" points="300,30,292.5,54.6,292.5,275.4,300,300"/>
        <polygon gorn="0.0.4"  fill="#1F1F1F" id="left" stroke-width="0" points="0,30,7.5,54.6,7.5,275.4,0,300"/>
        <polygon gorn="0.0.5"  fill="#1C1C1C" id="left-upper-rect" stroke-width="0" points="50,115,7.5,114.6,5.6,135.8,5.6,165,50,165"/>
        <polygon gorn="0.0.6"  fill="#383838" id="left-lower-rect" stroke-width="0" points="7.5,215.5,50,215.5,50,165,5.6,165,5.6,194.2"/>
        <path d="M5.6,135.8l0,58.3c14.7,-1.7,26.2,-14,26.2,-29.2C31.8,149.7,20.4,137.5,5.6,135.8z" gorn="0.0.7"  fill="#262626" id="slot" stroke-width="0"/>
        <path d="M7.5,54.6L7.5,114.5c23.8,4.5,41.9,25.3,41.9,50.4c0,25.1,-18,46,-41.9,50.5L7.5,215.5l50,0L57.5,54.6L7.5,54.6z" gorn="0.0.8"  fill="#303030" id="cover" stroke-width="0"/>
        <circle  fill="#212121" stroke-width="0" cx="65" r="20.6" cy="234.7"/>
        <text gorn="0.0.10" x="65"  y="165" font-family="OCRA" font-size="80" fill="#dddddd" id="label" stroke-width="0" text-anchor="start" stroke="none">LPC1114</text>
        <rect gorn="0.0.11" height="43.4" x="35"  y="286.6" fill="#8C8C8C" id="connector0pin" stroke-width="0" width="30"/>
        <rect gorn="0.0.12" height="30" x="35"  y="300" fill="#8C8C8C" id="connector0terminal" stroke-width="0" width="30"/>
        <polygon  fill="#8C8C8C" stroke-width="0" points="35,286.6,35,306.6,65,306.6,85,297.4,85,286.6"/>
        <rect gorn="0.0.14" height="43.4" x="35"  y="0" fill="#8C8C8C" id="connector5pin" stroke-width="0" width="30"/>
        <rect gorn="0.0.15" height="30" x="35"  y="0" fill="#8C8C8C" id="connector5terminal" stroke-width="0" width="30"/>
        <polygon  fill="#8C8C8C" stroke-width="0" points="85,43.4,85,32.6,65,23.4,35,23.4,35,43.4"/>
        <rect gorn="0.0.17" height="43.4" x="235"  y="286.6" fill="#8C8C8C" id="connector2pin" stroke-width="0" width="30"/>
        <rect gorn="0.0.18" height="30" x="235"  y="300" fill="#8C8C8C" id="connector2terminal" stroke-width="0" width="30"/>
        <polygon  fill="#8C8C8C" stroke-width="0" points="215,286.6,215,297.4,235,306.6,265,306.6,265,286.6"/>
        <rect gorn="0.0.20" height="43.4" x="235"  y="0" fill="#8C8C8C" id="connector3pin" stroke-width="0" width="30"/>
        <rect gorn="0.0.21" height="30" x="235"  y="0" fill="#8C8C8C" id="connector3terminal" stroke-width="0" width="30"/>
        <polygon  fill="#8C8C8C" stroke-width="0" points="265,43.4,265,23.4,235,23.4,215,32.6,215,43.4"/>
        <rect gorn="0.0.23" height="43.4" x="135"  y="286.6" fill="#8C8C8C" id="connector1pin" stroke-width="0" width="30"/>
        <rect gorn="0.0.24" height="30" x="135"  y="300" fill="#8C8C8C" id="connector1terminal" stroke-width="0" width="30"/>
        <polygon  fill="#8C8C8C" stroke-width="0" points="115,286.6,115,297.4,135,306.6,165,306.6,185,297.4,185,286.6"/>
        <rect gorn="0.0.26" height="43.4" x="135"  y="0" fill="#8C8C8C" id="connector4pin" stroke-width="0" width="30"/>
        <rect gorn="0.0.27" height="30" x="135"  y="0" fill="#8C8C8C" id="connector4terminal" stroke-width="0" width="30"/>
        <polygon  fill="#8C8C8C" stroke-width="0" points="185,43.4,185,32.6,165,23.4,135,23.4,115,32.6,115,43.4"/>
    </g>
</svg>
